<?xml version="1.0" encoding="UTF-8"?>
<svg width="35px" height="35px" viewBox="0 0 35 35" version="1.1" xmlns="http://www.w3.org/2000/svg" xmlns:xlink="http://www.w3.org/1999/xlink">
    <!-- Generator: Sketch 49.3 (51167) - http://www.bohemiancoding.com/sketch -->
    <title>完成</title>
    <desc>Created with Sketch.</desc>
    <defs></defs>
    <g id="Page-1" stroke="none" stroke-width="1" fill="none" fill-rule="evenodd">
        <g id="商品详情-工艺" transform="translate(-123.000000, -528.000000)" fill-rule="nonzero">
            <g id="完成" transform="translate(123.000000, 528.000000)">
                <path d="M0,17.5 C1.21430643e-15,27.1649831 7.83501688,35 17.5,35 C27.1649831,35 35,27.1649831 35,17.5 C35,7.83501688 27.1649831,5.91809532e-16 17.5,0 C7.83501688,-5.91809532e-16 1.21430643e-15,7.83501688 0,17.5 Z" id="Shape" fill-opacity="0.4" fill="#000000"></path>
                <path d="M25.0775566,12.1064082 L14.9945449,21.7966763 C14.6177354,22.1588087 14.0256239,22.1697198 13.6357284,21.8217158 L8.83694499,17.538528 C8.47970038,17.2196669 7.9350231,17.2375204 7.59942627,17.5790917 L7.59942627,17.5790917 C7.28078337,17.9034072 7.28538194,18.424628 7.60969746,18.7432709 C7.61717525,18.7506179 7.62479269,18.7578213 7.63254561,18.7648774 L13.2929688,23.9165039 L13.6225971,24.2122456 C14.017642,24.5666789 14.6207625,24.5507583 14.9965585,24.1759772 L15.1188119,24.054054 L26.3621379,13.3121196 C26.6957635,12.9933719 26.7078245,12.4645187 26.3890767,12.130893 C26.3786135,12.1199415 26.3678545,12.1092765 26.3568115,12.0989099 L26.3568115,12.0989099 C25.9963606,11.7605368 25.4340163,11.763833 25.0775566,12.1064082 Z" id="Shape" fill="#CCCCCC"></path>
            </g>
        </g>
    </g>
</svg>